<?xml version="1.0" encoding="UTF-8"?>
<svg version="1.1" xmlns="http://www.w3.org/2000/svg" width="207" height="195">
<path d="M0 0 C1.4499234 -0.00642769 1.4499234 -0.00642769 2.92913818 -0.01298523 C4.96984069 -0.01871338 7.01056361 -0.01923999 9.05126953 -0.01489258 C12.14782251 -0.01174321 15.24340943 -0.03517434 18.33984375 -0.06054688 C20.33072797 -0.06282131 22.32161474 -0.06352269 24.3125 -0.0625 C25.22638489 -0.07170975 26.14026978 -0.08091949 27.08184814 -0.09040833 C35.72417276 -0.02929289 44.16143771 1.61586808 50.921875 7.30078125 C57.14251467 14.28404742 59.2646298 20.41282706 59.046875 29.67578125 C59.03785156 30.41183594 59.02882812 31.14789063 59.01953125 31.90625 C58.99617644 33.70457005 58.96031336 35.50272036 58.921875 37.30078125 C59.72294678 37.2850708 60.52401855 37.26936035 61.34936523 37.25317383 C65.01929514 37.19036977 68.68911149 37.15164637 72.359375 37.11328125 C73.61943359 37.08814453 74.87949219 37.06300781 76.17773438 37.03710938 C85.58227528 36.96344456 93.70372847 37.85945518 101.3515625 43.7109375 C106.49731822 48.92069515 109.03480751 55.59823842 109.06231689 62.82133484 C109.06802704 63.72255569 109.07373718 64.62377655 109.07962036 65.55230713 C109.08129715 67.02434601 109.08129715 67.02434601 109.08300781 68.52612305 C109.08797272 69.56563614 109.09293762 70.60514923 109.09805298 71.67616272 C109.11266519 75.11744854 109.11947568 78.55868824 109.125 82 C109.13075299 84.3941091 109.1365107 86.78821819 109.14227295 89.18232727 C109.15278078 94.20513117 109.15862463 99.22791908 109.16210938 104.25073242 C109.16758833 110.67541239 109.1916047 117.09987982 109.22008133 123.52449322 C109.23874062 128.47199615 109.24391511 133.41944827 109.24544525 138.36698341 C109.24846573 140.73477145 109.25647377 143.10255871 109.26963043 145.47031212 C109.28675653 148.7898595 109.28479423 152.1088927 109.27832031 155.4284668 C109.2875351 156.3997049 109.29674988 157.37094299 109.3062439 158.37161255 C109.25018816 167.58467253 107.27329532 174.79607617 100.88671875 181.57421875 C94.72800588 186.98604994 87.95794126 188.41833057 79.9210968 188.44122314 C78.7170369 188.44693329 77.51297699 188.45264343 76.27243042 188.45852661 C74.9596109 188.45964447 73.64679138 188.46076233 72.29418945 188.46191406 C70.89097463 188.4665459 69.48776107 188.47157105 68.08454895 188.47695923 C64.27851031 188.4900516 60.47248929 188.4965222 56.66643167 188.50096989 C54.28517373 188.50390623 51.90392055 188.50801213 49.52266502 188.51247406 C42.06250828 188.52614177 34.60236248 188.53581151 27.14219409 188.53967595 C18.54890792 188.54415255 9.95578113 188.56168496 1.3625434 188.59067655 C-5.29158973 188.61234172 -11.94567818 188.62238283 -18.59984618 188.62371707 C-22.56843918 188.6247618 -26.53688219 188.63059841 -30.50543785 188.64853668 C-34.24260684 188.66510088 -37.97951446 188.66713277 -41.71670723 188.65839767 C-43.72817014 188.65726882 -45.7396247 188.67092219 -47.7510376 188.68515015 C-57.67516329 188.63977925 -66.42172796 187.53306184 -74.3203125 181.10546875 C-81.83788163 173.38743111 -82.2283676 164.49780495 -82.22338867 154.29150391 C-82.22674728 153.29886032 -82.2301059 152.30621674 -82.23356628 151.28349304 C-82.24304483 148.01059712 -82.24501779 144.73775253 -82.24609375 141.46484375 C-82.2493083 139.18329853 -82.25267252 136.90175352 -82.25617981 134.62020874 C-82.2621632 129.84055097 -82.2640205 125.06091125 -82.26342773 120.28125 C-82.26332612 114.16597093 -82.27698162 108.05080797 -82.29419994 101.93555641 C-82.30533444 97.22400381 -82.3073465 92.51247917 -82.30681801 87.80091476 C-82.30799581 85.5467425 -82.31240632 83.29256946 -82.32015038 81.03841019 C-82.32998011 77.88180724 -82.32706042 74.72545489 -82.32104492 71.56884766 C-82.32666443 70.64391006 -82.33228394 69.71897247 -82.33807373 68.76600647 C-82.28947784 58.69825567 -80.10439926 50.32705551 -72.828125 43.05078125 C-63.87785996 37.35515804 -56.5912265 36.77974563 -46.015625 37.05078125 C-44.65953175 37.07088834 -43.30340953 37.08913164 -41.94726562 37.10546875 C-38.65680014 37.15230812 -35.36784665 37.21789263 -32.078125 37.30078125 C-32.13033203 35.81578125 -32.13033203 35.81578125 -32.18359375 34.30078125 C-32.44872466 23.72902082 -31.44252354 16.50707644 -24.75 8.05859375 C-18.05222768 1.01654342 -9.19686617 -0.00909139 0 0 Z M-11.953125 21.80078125 C-15.874129 27.02878659 -14.078125 28.5040469 -14.078125 37.30078125 C4.071875 37.30078125 22.221875 37.30078125 40.921875 37.30078125 C42.48589782 32.60871278 41.96485301 28.0984801 40.921875 23.30078125 C37.67043702 19.39905568 34.80465448 18.92961584 29.921875 18.30078125 C25.20039979 18.11023131 20.47939681 18.11496612 15.75463867 18.11547852 C13.49443758 18.11329099 11.23472443 18.09509834 8.97460938 18.07617188 C7.52083498 18.07323734 6.0670583 18.07125295 4.61328125 18.0703125 C3.30560791 18.06620361 1.99793457 18.06209473 0.65063477 18.05786133 C-3.90437332 18.35460938 -8.31062167 18.88677859 -11.953125 21.80078125 Z M67.21920776 69.20095825 C66.24421829 70.122384 65.28510642 71.06079491 64.33935547 72.01220703 C63.81881529 72.51305376 63.29827511 73.01390049 62.76196098 73.52992439 C61.13319303 75.10528678 59.52651088 76.70088128 57.921875 78.30078125 C56.95115495 79.25304713 55.97984127 80.20470833 55.00787354 81.15570068 C52.57492541 83.54836738 50.16465218 85.96262316 47.76190567 88.38558578 C46.19078544 89.96979918 44.61627319 91.55057722 43.04098511 93.13064575 C39.70672701 96.47615618 36.3765036 99.82566412 33.046875 103.17578125 C29.16073366 107.08567053 25.27287641 110.99382388 21.38079453 114.89780045 C19.83999756 116.44501169 18.30227277 117.99523027 16.76467896 119.54562378 C9.04674483 127.30093578 9.04674483 127.30093578 5.24169922 130.35205078 C4.09338623 131.31667236 4.09338623 131.31667236 2.921875 132.30078125 C2.921875 132.96078125 2.921875 133.62078125 2.921875 134.30078125 C0.25520833 135.63411458 -2.41145833 136.96744792 -5.078125 138.30078125 C-5.58150391 137.79216553 -6.08488281 137.2835498 -6.60351562 136.75952148 C-8.92564478 134.41637397 -11.2518527 132.07731523 -13.578125 129.73828125 C-14.36960938 128.93841797 -15.16109375 128.13855469 -15.9765625 127.31445312 C-20.31907307 122.95414538 -24.72515596 118.74712592 -29.40576172 114.75048828 C-32.3086333 112.23410121 -35.01480107 109.52047635 -37.5390625 106.625 C-39.23657513 104.68497373 -39.23657513 104.68497373 -42.078125 102.30078125 C-46.59534925 102.43407639 -48.82653855 104.45494811 -51.953125 107.55078125 C-52.75492188 108.3190625 -53.55671875 109.08734375 -54.3828125 109.87890625 C-56.33213479 112.15704853 -56.33213479 112.15704853 -56.02734375 114.85546875 C-55.00389885 117.49199759 -53.91562078 119.0896811 -52.015625 121.17578125 C-51.46777344 121.79195312 -50.91992188 122.408125 -50.35546875 123.04296875 C-48.42918309 124.95273395 -46.46733878 126.70191255 -44.40893555 128.46386719 C-40.23387244 132.10467297 -36.35966124 135.97187497 -32.5078125 139.94921875 C-31.10346092 141.38079357 -29.69849514 142.81176609 -28.29296875 144.2421875 C-26.11024326 146.46832087 -23.93165412 148.69796065 -21.76318359 150.93798828 C-19.64780145 153.11990682 -17.51689704 155.28561 -15.3828125 157.44921875 C-14.73891571 158.12205902 -14.09501892 158.79489929 -13.43161011 159.48812866 C-9.84222704 163.09857487 -7.44437991 165.27272948 -2.078125 165.30078125 C0.52469568 164.0315045 1.85440852 162.41747312 3.921875 160.30078125 C3.921875 159.64078125 3.921875 158.98078125 3.921875 158.30078125 C4.581875 158.30078125 5.241875 158.30078125 5.921875 158.30078125 C8.08854167 156.46744792 8.08854167 156.46744792 9.921875 154.30078125 C9.921875 153.64078125 9.921875 152.98078125 9.921875 152.30078125 C10.45297379 152.09499954 10.98407257 151.88921783 11.53126526 151.67720032 C14.91282523 149.73023108 17.450672 147.03298995 20.17163086 144.27807617 C20.78841202 143.66158707 21.40519318 143.04509796 22.04066467 142.40992737 C24.07745949 140.37173998 26.10707597 138.3265575 28.13671875 136.28125 C29.5534819 134.86075424 30.9706891 133.44070123 32.38832092 132.02107239 C36.12100206 128.28075592 39.84764391 124.53447795 43.57305908 120.78692627 C47.35436224 116.9852322 51.14126356 113.18912403 54.92773438 109.39257812 C61.0498482 103.25288895 67.16852828 97.10980293 73.28268433 90.96218872 C73.82228287 90.41969986 74.36188141 89.877211 74.91783142 89.31828308 C75.42470427 88.80762991 75.93157711 88.29697674 76.45380974 87.77084923 C77.87693448 86.34578308 79.31509076 84.93577738 80.75367737 83.52632141 C82.94520079 81.48548853 82.94520079 81.48548853 83.9921875 79.28125 C83.87831602 76.07386988 82.03783638 74.79299449 79.796875 72.61328125 C79.01054687 71.82566406 78.22421875 71.03804688 77.4140625 70.2265625 C73.57226207 67.25789853 71.37954584 66.27592974 67.21920776 69.20095825 Z " fill="#2A8AC1" transform="translate(91.078125,2.69921875)"/>
<path d="M0 0 C1.4499234 -0.00642769 1.4499234 -0.00642769 2.92913818 -0.01298523 C4.96984069 -0.01871338 7.01056361 -0.01923999 9.05126953 -0.01489258 C12.14782251 -0.01174321 15.24340943 -0.03517434 18.33984375 -0.06054688 C20.33072797 -0.06282131 22.32161474 -0.06352269 24.3125 -0.0625 C25.22638489 -0.07170975 26.14026978 -0.08091949 27.08184814 -0.09040833 C35.72417276 -0.02929289 44.16143771 1.61586808 50.921875 7.30078125 C57.14251467 14.28404742 59.2646298 20.41282706 59.046875 29.67578125 C59.03785156 30.41183594 59.02882813 31.14789063 59.01953125 31.90625 C58.99617644 33.70457005 58.96031336 35.50272036 58.921875 37.30078125 C59.72294678 37.2850708 60.52401855 37.26936035 61.34936523 37.25317383 C65.01929514 37.19036977 68.68911149 37.15164637 72.359375 37.11328125 C73.61943359 37.08814453 74.87949219 37.06300781 76.17773438 37.03710938 C84.35300901 36.97307328 92.02323588 36.97267469 98.484375 42.48828125 C98.95875 43.08640625 99.433125 43.68453125 99.921875 44.30078125 C94.921875 42.30078125 94.921875 42.30078125 92.88398743 41.24465942 C88.50121295 39.84808678 84.28786991 40.0396201 79.71557617 40.07373047 C78.69072113 40.07343842 77.66586609 40.07314636 76.60995483 40.07284546 C73.22816451 40.07423691 69.84659551 40.08978968 66.46484375 40.10546875 C64.1178652 40.10919953 61.77088509 40.11204619 59.42390442 40.11404419 C53.25073944 40.12167551 47.07766877 40.14131981 40.90454102 40.16345215 C34.60369136 40.1839213 28.30282645 40.1930482 22.00195312 40.203125 C9.64188568 40.22456608 -2.71811181 40.25869608 -15.078125 40.30078125 C-15.078125 39.64078125 -15.078125 38.98078125 -15.078125 38.30078125 C-15.861875 38.36136719 -16.645625 38.42195313 -17.453125 38.484375 C-24.66303432 38.98937942 -31.86488113 39.34419385 -39.08984375 39.5546875 C-40.15248947 39.58579872 -40.15248947 39.58579872 -41.23660278 39.61753845 C-44.84703625 39.72145831 -48.45754559 39.81826696 -52.06835938 39.90795898 C-53.42968949 39.94507701 -54.79101769 39.98226491 -56.15234375 40.01953125 C-57.36494873 40.04982422 -58.57755371 40.08011719 -59.8269043 40.11132812 C-62.68454933 40.27784705 -65.29608169 40.65151733 -68.078125 41.30078125 C-67.078125 39.30078125 -67.078125 39.30078125 -63.890625 38.18359375 C-57.6977948 36.77085436 -51.39221503 37.0891042 -45.078125 37.17578125 C-43.82644531 37.18480469 -42.57476562 37.19382813 -41.28515625 37.203125 C-38.2159449 37.22655409 -35.14713744 37.25935978 -32.078125 37.30078125 C-32.13033203 35.81578125 -32.13033203 35.81578125 -32.18359375 34.30078125 C-32.44872466 23.72902082 -31.44252354 16.50707644 -24.75 8.05859375 C-18.05222768 1.01654342 -9.19686617 -0.00909139 0 0 Z M-11.953125 21.80078125 C-15.874129 27.02878659 -14.078125 28.5040469 -14.078125 37.30078125 C4.071875 37.30078125 22.221875 37.30078125 40.921875 37.30078125 C42.48589782 32.60871278 41.96485301 28.0984801 40.921875 23.30078125 C37.67043702 19.39905568 34.80465448 18.92961584 29.921875 18.30078125 C25.20039979 18.11023131 20.47939681 18.11496612 15.75463867 18.11547852 C13.49443758 18.11329099 11.23472443 18.09509834 8.97460938 18.07617188 C7.52083498 18.07323734 6.0670583 18.07125295 4.61328125 18.0703125 C3.30560791 18.06620361 1.99793457 18.06209473 0.65063477 18.05786133 C-3.90437332 18.35460938 -8.31062167 18.88677859 -11.953125 21.80078125 Z " fill="#134A72" transform="translate(91.078125,2.69921875)"/>
<path d="M0 0 C4.23818961 7.41683182 3.27112921 15.72553812 3 24 C3.80107178 23.98428955 4.60214355 23.9685791 5.42749023 23.95239258 C9.09742014 23.88958852 12.76723649 23.85086512 16.4375 23.8125 C17.69755859 23.78736328 18.95761719 23.76222656 20.25585938 23.73632812 C28.43113401 23.67229203 36.10136088 23.67189344 42.5625 29.1875 C43.036875 29.785625 43.51125 30.38375 44 31 C39 29 39 29 36.96211243 27.94387817 C32.57933795 26.54730553 28.36599491 26.73883885 23.79370117 26.77294922 C22.76884613 26.77265717 21.74399109 26.77236511 20.68807983 26.77206421 C17.30628951 26.77345566 13.92472051 26.78900843 10.54296875 26.8046875 C8.1959902 26.80841828 5.84901009 26.81126494 3.50202942 26.81326294 C-2.67113556 26.82089426 -8.84420623 26.84053856 -15.01733398 26.8626709 C-21.31818364 26.88314005 -27.61904855 26.89226695 -33.91992188 26.90234375 C-46.27998932 26.92378483 -58.63998681 26.95791483 -71 27 C-71 26.34 -71 25.68 -71 25 C-52.19 25 -33.38 25 -14 25 C-14 21.04 -14 17.08 -14 13 C-13.67 12.67 -13.34 12.34 -13 12 C-12.95936168 10.33382885 -12.957279 8.66611905 -13 7 C-13.66 7 -14.32 7 -15 7 C-15.66 4.69 -16.32 2.38 -17 0 C-15.68 0 -14.36 0 -13 0 C-12.505 1.98 -12.505 1.98 -12 4 C-11.34 4 -10.68 4 -10 4 C-9.7525 3.360625 -9.505 2.72125 -9.25 2.0625 C-8 0 -8 0 -6.125 -0.8125 C-3.75068049 -1.02199878 -2.2428802 -0.79786252 0 0 Z " fill="#19567F" transform="translate(147,16)"/>
<path d="M0 0 C0.99 0.495 0.99 0.495 2 1 C-6.0161293 8.74892499 -16.70584872 8.43737819 -27.1953125 8.38818359 C-28.59926764 8.39225719 -30.00321957 8.39760346 -31.40716553 8.40411377 C-35.19232921 8.41769968 -38.97724545 8.41252517 -42.76241302 8.40297651 C-46.74021529 8.39533434 -50.71799761 8.4024381 -54.69580078 8.40713501 C-61.37341073 8.41257937 -68.05092086 8.40543573 -74.72851562 8.39111328 C-82.42778334 8.37478928 -90.12681265 8.38007872 -97.8260746 8.3965925 C-104.45909465 8.41024512 -111.09204329 8.41210864 -117.72507286 8.40427649 C-121.67680133 8.39962065 -125.62841806 8.39891714 -129.58013916 8.40888596 C-133.29688827 8.41760859 -137.01333264 8.41143816 -140.73004913 8.39420319 C-142.72951346 8.38840171 -144.72900383 8.39720846 -146.72845459 8.40658569 C-163.37158143 8.29031828 -163.37158143 8.29031828 -168.76876831 3.39604759 C-169.17507477 2.93535189 -169.58138123 2.47465618 -170 2 C-167.69 2.33 -165.38 2.66 -163 3 C-163 3.66 -163 4.32 -163 5 C-143.18946736 5.07013232 -123.37895997 5.12300887 -103.56832886 5.15543652 C-94.3695663 5.17089454 -85.17088096 5.19196369 -75.97216797 5.22631836 C-67.95302814 5.25625332 -59.93394425 5.27558274 -51.9147501 5.28226548 C-47.67003517 5.2861708 -43.42548022 5.29532662 -39.18081665 5.31719017 C-35.18191254 5.33762011 -31.18323365 5.34382071 -27.1842823 5.33932304 C-25.72020301 5.34014534 -24.25611584 5.34607223 -22.79208183 5.35761642 C-15.22779527 5.4143142 -8.83839323 5.43741375 -2 2 C-1.34 1.34 -0.68 0.68 0 0 Z " fill="#0A2840" transform="translate(190,183)"/>
<path d="M0 0 C0 0.66 0 1.32 0 2 C-0.763125 2.4125 -1.52625 2.825 -2.3125 3.25 C-5.68337135 5.444986 -6.54278919 7.28411243 -8 11 C-8.70758326 14.2366963 -8.70758326 14.2366963 -9 17 C-9.33 17 -9.66 17 -10 17 C-10.02339198 30.83016832 -10.04094354 44.66033355 -10.05181217 58.49051762 C-10.05702879 64.91254933 -10.06410431 71.33456774 -10.07543945 77.7565918 C-10.08631167 83.95519072 -10.09228605 90.15377685 -10.09487724 96.35238457 C-10.09672367 98.71623371 -10.10032925 101.08008216 -10.10573006 103.44392586 C-10.11299795 106.75698479 -10.11398851 110.06999101 -10.11352539 113.38305664 C-10.11712067 114.35841873 -10.12071594 115.33378082 -10.12442017 116.33869934 C-10.27348191 126.31681098 -10.27348191 126.31681098 -6.5 135.3125 C-5.83484375 136.29669922 -5.83484375 136.29669922 -5.15625 137.30078125 C-4.7746875 137.86152344 -4.393125 138.42226562 -4 139 C-3.67 139.66 -3.34 140.32 -3 141 C-6.74978187 139.53587693 -8.16497756 137.68152908 -10.1875 134.25 C-10.69667969 133.40953125 -11.20585937 132.5690625 -11.73046875 131.703125 C-14.51456979 125.7751314 -14.14839294 119.40540137 -14.14526367 112.99072266 C-14.14862228 111.99807907 -14.1519809 111.00543549 -14.15544128 109.98271179 C-14.16491983 106.70981587 -14.16689279 103.43697128 -14.16796875 100.1640625 C-14.1711833 97.88251728 -14.17454752 95.60097227 -14.17805481 93.31942749 C-14.1840382 88.53976972 -14.1858955 83.76013 -14.18530273 78.98046875 C-14.18520112 72.86518968 -14.19885662 66.75002672 -14.21607494 60.63477516 C-14.22720944 55.92322256 -14.2292215 51.21169792 -14.22869301 46.50013351 C-14.22987081 44.24596125 -14.23428132 41.99178821 -14.24202538 39.73762894 C-14.25185511 36.58102599 -14.24893542 33.42467364 -14.24291992 30.26806641 C-14.24853943 29.34312881 -14.25415894 28.41819122 -14.25994873 27.46522522 C-14.2167943 18.52479856 -12.55812434 11.17792058 -7 4 C-2.7 0 -2.7 0 0 0 Z " fill="#1B6C98" transform="translate(23,44)"/>
<path d="M0 0 C3.99655616 3.66433295 5.67396843 8.10888441 6.27357101 13.42591667 C6.38845259 16.18150924 6.40550363 18.92150759 6.38818359 21.67944336 C6.39344055 22.71954056 6.39869751 23.75963776 6.40411377 24.83125305 C6.41725901 28.25093851 6.40859417 31.670154 6.3984375 35.08984375 C6.40045995 37.47823678 6.40337282 39.86662921 6.40713501 42.25502014 C6.41155109 47.25397639 6.40515075 52.25277151 6.39111328 57.25170898 C6.37403136 63.64492355 6.38386117 70.03775998 6.40183067 76.43096066 C6.41269564 81.36132125 6.40920952 86.29159291 6.4014473 91.22195625 C6.39945232 93.5785686 6.40187977 95.93518914 6.40888596 98.29179192 C6.4165439 101.59179804 6.40483452 104.89120067 6.38818359 108.19116211 C6.39425629 109.15611603 6.40032898 110.12106995 6.40658569 111.11526489 C6.34663813 117.560663 5.95580085 124.77368317 1.39604759 129.75074673 C0.93535189 130.16300031 0.47465618 130.57525389 0 131 C0.4689689 128.34250954 1.01139371 125.97173107 2.02288818 123.46211243 C3.33005918 118.830531 3.27908226 114.52054803 3.25878906 109.73120117 C3.2622937 108.71090317 3.26579834 107.69060516 3.26940918 106.63938904 C3.27819551 103.27384593 3.27238686 99.90851392 3.265625 96.54296875 C3.26697285 94.19655823 3.26891438 91.85014797 3.27142334 89.5037384 C3.27437067 84.58701925 3.2700906 79.67037281 3.26074219 74.75366211 C3.24936684 68.46583587 3.25589754 62.17818075 3.26788712 55.89036083 C3.27513232 51.04407983 3.27280524 46.19783903 3.26763153 41.35155678 C3.26630141 39.0340199 3.26792031 36.71647932 3.27259064 34.39894676 C3.27769747 31.15152781 3.26988643 27.90438122 3.25878906 24.65698242 C3.26283752 23.70758789 3.26688599 22.75819336 3.27105713 21.7800293 C3.23418801 15.92504933 2.46347473 10.66078009 1 5 C0.66013333 3.33465333 0.32297514 1.66870487 0 0 Z " fill="#123E5A" transform="translate(194,50)"/>
<path d="M0 0 C1.44567856 -0.00430527 1.44567856 -0.00430527 2.92056274 -0.00869751 C4.94932649 -0.01072917 6.97811022 -0.00526253 9.00683594 0.00732422 C12.08573998 0.02335512 15.16332443 0.00746267 18.2421875 -0.01171875 C20.22396119 -0.00973547 22.20573407 -0.00589006 24.1875 0 C25.09511078 -0.00607269 26.00272156 -0.01214539 26.93783569 -0.0184021 C36.82616251 0.08854367 45.03394526 2.46483589 52.6015625 9.0234375 C53.7265625 10.3984375 53.7265625 10.3984375 53.7265625 12.3984375 C50.7265625 11.3984375 50.7265625 11.3984375 48.7265625 8.3984375 C41.7223214 4.8516444 35.13346037 4.99169907 27.3984375 5.0703125 C26.13187317 5.07218567 24.86530884 5.07405884 23.56036377 5.07598877 C20.89409595 5.08268928 18.2286071 5.09489014 15.5625 5.1171875 C12.15074711 5.14558302 8.73923339 5.15641383 5.3273735 5.1608696 C2.05936539 5.1660283 -1.20858553 5.18056065 -4.4765625 5.1953125 C-5.69950012 5.19956238 -6.92243774 5.20381226 -8.18243408 5.20819092 C-9.88505402 5.22260223 -9.88505402 5.22260223 -11.62207031 5.23730469 C-12.619422 5.24413269 -13.61677368 5.25096069 -14.64434814 5.25799561 C-17.00608565 5.38415598 -19.01435611 5.72634802 -21.2734375 6.3984375 C-15.53611974 0.13300875 -7.95871438 -0.05301414 0 0 Z " fill="#06233B" transform="translate(91.2734375,2.6015625)"/>
<path d="M0 0 C0.66 0 1.32 0 2 0 C3.35561747 12.40291274 3.33664075 24.87048796 3.55224609 37.33227539 C3.60421315 40.25935537 3.66132041 43.18630414 3.71875 46.11328125 C3.73232544 47.00195389 3.74590088 47.89062653 3.7598877 48.80622864 C3.78440839 58.54505864 3.78440839 58.54505864 7.5 67.3125 C7.9434375 67.96863281 8.386875 68.62476563 8.84375 69.30078125 C9.41609375 70.14189453 9.41609375 70.14189453 10 71 C10.33 71.66 10.66 72.32 11 73 C7.25021813 71.53587693 5.83502244 69.68152908 3.8125 66.25 C3.30332031 65.40953125 2.79414063 64.5690625 2.26953125 63.703125 C0.08655177 59.05505792 -0.12522553 54.34788132 -0.11352539 49.27001953 C-0.11344986 48.16933136 -0.11337433 47.06864319 -0.11329651 45.93460083 C-0.10813522 44.76251068 -0.10297394 43.59042053 -0.09765625 42.3828125 C-0.0962413 41.17051971 -0.09482635 39.95822693 -0.09336853 38.709198 C-0.08778345 34.84777327 -0.07523361 30.98640712 -0.0625 27.125 C-0.05748308 24.50260501 -0.0529205 21.8802091 -0.04882812 19.2578125 C-0.03781889 12.83852178 -0.02109555 6.41926507 0 0 Z " fill="#186690" transform="translate(9,112)"/>
<path d="M0 0 C0.66 0 1.32 0 2 0 C2.33 0.66 2.66 1.32 3 2 C6.36857717 3.56000934 6.36857717 3.56000934 10 4 C10.433125 5.093125 10.86625 6.18625 11.3125 7.3125 C12.49495641 10.09408793 13.60800043 12.06361939 16 14 C16.33 13.34 16.66 12.68 17 12 C23.75 11.875 23.75 11.875 26 13 C26 14.32 26 15.64 26 17 C26.66 17 27.32 17 28 17 C27.75 19.375 27.75 19.375 27 22 C24.953125 23.1640625 24.953125 23.1640625 23 24 C22.48091064 23.47567383 21.96182129 22.95134766 21.42700195 22.41113281 C19.05816972 20.02142632 16.6853802 17.6356868 14.3125 15.25 C13.49587891 14.425 12.67925781 13.6 11.83789062 12.75 C11.04189453 11.95078125 10.24589844 11.1515625 9.42578125 10.328125 C8.69786377 9.5949707 7.96994629 8.86181641 7.2199707 8.10644531 C4.97935804 5.90931811 4.97935804 5.90931811 2.22338867 3.85449219 C1.48967041 3.24250977 0.75595215 2.63052734 0 2 C0 1.34 0 0.68 0 0 Z " fill="#2C89C4" transform="translate(63,118)"/>
<path d="M0 0 C0.99 0.495 0.99 0.495 2 1 C1.29256149 1.70299728 0.58512299 2.40599457 -0.14375305 3.1302948 C-6.81448383 9.76045812 -13.4799091 16.39591438 -20.14019489 23.03657055 C-23.56436759 26.45031219 -26.99037326 29.86217086 -30.4206543 33.26977539 C-33.73183354 36.55920234 -37.03808387 39.85351014 -40.34099388 43.1512394 C-41.60110863 44.4076627 -42.86298058 45.6623262 -44.12664223 46.91518211 C-45.89813233 48.67212582 -47.66323534 50.43525875 -49.42700195 52.19995117 C-49.94920822 52.71496689 -50.47141449 53.2299826 -51.00944519 53.76060486 C-53.23646385 56.00028098 -55.05551461 58.09289269 -56.68034363 60.8117218 C-58 63 -58 63 -60.6875 63.8125 C-61.450625 63.874375 -62.21375 63.93625 -63 64 C-59.20301491 59.46479694 -55.28288646 55.13986003 -51.08642578 50.97290039 C-50.5295961 50.41592468 -49.97276642 49.85894897 -49.39906311 49.28509521 C-47.58351 47.47023101 -45.76445606 45.65892089 -43.9453125 43.84765625 C-42.67571469 42.57992626 -41.40633952 41.31197327 -40.13717651 40.04380798 C-36.81532426 36.72575224 -33.49047867 33.41071211 -30.16497803 30.09631348 C-26.76440491 26.70601645 -23.36670263 23.31284494 -19.96875 19.91992188 C-13.31528981 13.27714838 -6.65866041 6.63756054 0 0 Z " fill="#07253B" transform="translate(169,88)"/>
<path d="M0 0 C3.14521114 2.57335457 3.96681892 5.1166642 5 9 C5.2234478 11.79894146 5.19095067 14.56956014 5.125 17.375 C5.11597656 18.11105469 5.10695312 18.84710938 5.09765625 19.60546875 C5.07430144 21.4037888 5.03843836 23.20193911 5 25 C5.80107178 24.98428955 6.60214355 24.9685791 7.42749023 24.95239258 C11.09742014 24.88958852 14.76723649 24.85086512 18.4375 24.8125 C19.69755859 24.78736328 20.95761719 24.76222656 22.25585938 24.73632812 C30.43113401 24.67229203 38.10136088 24.67189344 44.5625 30.1875 C45.036875 30.785625 45.51125 31.38375 46 32 C41 30 41 30 38.79003906 28.95336914 C35.28826649 27.7567974 32.24568029 27.69194423 28.546875 27.62109375 C27.49563446 27.59560204 27.49563446 27.59560204 26.42315674 27.56959534 C24.19886108 27.51673412 21.97458248 27.47626166 19.75 27.4375 C17.51122461 27.39357891 15.27259307 27.34696027 13.03399658 27.29469299 C11.01335592 27.2481987 8.99251476 27.21067842 6.97167969 27.17358398 C4 27 4 27 3 26 C2.71032851 22.31243596 2.55084222 18.62448165 2.37890625 14.9296875 C2.00571871 11.05930952 1.10069007 7.71650006 0 4 C0 2.68 0 1.36 0 0 Z " fill="#0A273F" transform="translate(145,15)"/>
<path d="M0 0 C0.66 0.33 1.32 0.66 2 1 C1.59007812 1.58007812 1.18015625 2.16015625 0.7578125 2.7578125 C0.21898437 3.53898438 -0.31984375 4.32015625 -0.875 5.125 C-1.40867188 5.89070312 -1.94234375 6.65640625 -2.4921875 7.4453125 C-5.63004283 12.76178241 -6.27873459 17.63998744 -6.5625 23.75 C-6.90130152 30.80260304 -6.90130152 30.80260304 -8 33 C-8.94319092 33.02505615 -9.88638184 33.0501123 -10.8581543 33.07592773 C-14.37128663 33.17129809 -17.88426708 33.27051725 -21.3972168 33.37231445 C-22.91507755 33.41551548 -24.43298226 33.45720048 -25.95092773 33.49731445 C-28.13799259 33.55537812 -30.32483918 33.61896656 -32.51171875 33.68359375 C-34.48338013 33.73858032 -34.48338013 33.73858032 -36.49487305 33.79467773 C-39.44699698 33.96760636 -42.12950496 34.32160714 -45 35 C-44 33 -44 33 -40.8125 31.8828125 C-34.6196698 30.47007311 -28.31409003 30.78832295 -22 30.875 C-20.74832031 30.88402344 -19.49664062 30.89304687 -18.20703125 30.90234375 C-15.1378199 30.92577284 -12.06901244 30.95857853 -9 31 C-9.03480469 30.01 -9.06960937 29.02 -9.10546875 28 C-9.40456864 16.07376943 -7.62694044 9.28067834 0 0 Z " fill="#092439" transform="translate(68,9)"/>
<path d="M0 0 C0.81482346 -0.00960754 1.62964691 -0.01921509 2.46916199 -0.02911377 C3.34728043 -0.03336365 4.22539886 -0.03761353 5.13012695 -0.04199219 C6.03914261 -0.04769226 6.94815826 -0.05339233 7.88471985 -0.05926514 C9.81050453 -0.0687132 11.73630537 -0.07524835 13.66210938 -0.07910156 C16.58989232 -0.08877299 19.51696289 -0.11978396 22.44458008 -0.15136719 C24.31892488 -0.15790104 26.1932747 -0.16315001 28.06762695 -0.16699219 C28.93562424 -0.17933899 29.80362152 -0.19168579 30.69792175 -0.20440674 C36.42935884 -0.18369769 40.72212519 0.70805213 45.9309082 3.16113281 C46.92700195 5.45410156 46.92700195 5.45410156 46.9309082 8.16113281 C46.96313477 9.18851563 46.99536133 10.21589844 47.02856445 11.27441406 C47.01696289 12.33015625 47.00536133 13.38589844 46.9934082 14.47363281 C46.98438477 15.54226562 46.97536133 16.61089844 46.96606445 17.71191406 C46.95446289 18.52015625 46.94286133 19.32839844 46.9309082 20.16113281 C44.63911891 18.36174387 43.9800887 17.5048786 43.55981445 14.56738281 C43.51554494 12.62994054 43.47387805 10.69243704 43.43481445 8.75488281 C43.15376159 6.08490589 43.15376159 6.08490589 41.27075195 4.37988281 C34.57622502 0.8929172 26.17956648 1.97502963 18.81860352 1.97583008 C16.56938685 1.9736459 14.3206632 1.95546296 12.0715332 1.93652344 C10.62101402 1.93358822 9.17049255 1.93160428 7.7199707 1.93066406 C6.41753418 1.92655518 5.11509766 1.92244629 3.77319336 1.91821289 C-0.44528916 2.18491705 -4.0090481 3.02211986 -8.0690918 4.16113281 C-7.7390918 3.17113281 -7.4090918 2.18113281 -7.0690918 1.16113281 C-4.37222776 0.26217813 -2.77171623 0.02645657 0 0 Z " fill="#051C2F" transform="translate(88.069091796875,19.8388671875)"/>
<path d="M0 0 C0.66 0 1.32 0 2 0 C2.01981934 0.61931396 2.03963867 1.23862793 2.06005859 1.87670898 C2.15635231 4.73067389 2.26560097 7.58400857 2.375 10.4375 C2.4059375 11.41138672 2.436875 12.38527344 2.46875 13.38867188 C2.91575546 24.99863809 2.91575546 24.99863809 7.5625 35.4375 C8.21412109 36.39462891 8.21412109 36.39462891 8.87890625 37.37109375 C9.24886719 37.90863281 9.61882813 38.44617188 10 39 C10.33 39.66 10.66 40.32 11 41 C7.25021813 39.53587693 5.83502244 37.68152908 3.8125 34.25 C3.30332031 33.40953125 2.79414063 32.5690625 2.26953125 31.703125 C-0.77891528 25.21227884 -0.11868524 18.14383321 -0.0625 11.125 C-0.05798828 10.05507812 -0.05347656 8.98515625 -0.04882812 7.8828125 C-0.03709749 5.25515014 -0.02068228 2.62760462 0 0 Z " fill="#164361" transform="translate(9,144)"/>
<path d="M0 0 C0 3.10551666 -0.5393715 4.35261084 -2 7 C-2.66 7 -3.32 7 -4 7 C-4.226875 7.928125 -4.45375 8.85625 -4.6875 9.8125 C-6.21799908 13.52942635 -7.39794214 14.37907396 -11 16 C-11.66 16 -12.32 16 -13 16 C-12.38722388 13.03824877 -11.74627478 11.61941217 -10 9 C-9.34 9 -8.68 9 -8 9 C-7.67 8.01 -7.34 7.02 -7 6 C-5.37109375 4.39453125 -5.37109375 4.39453125 -3.4375 2.8125 C-2.79683594 2.28269531 -2.15617187 1.75289062 -1.49609375 1.20703125 C-1.00238281 0.80871094 -0.50867188 0.41039062 0 0 Z " fill="#2E84B4" transform="translate(105,152)"/>
<path d="M0 0 C0.33 0.66 0.66 1.32 1 2 C1.99 2.33 2.98 2.66 4 3 C-4.58 11.58 -13.16 20.16 -22 29 C-22 26 -22 26 -20.08813477 23.81103516 C-19.21471436 22.97878418 -18.34129395 22.1465332 -17.44140625 21.2890625 C-16.49845703 20.37382813 -15.55550781 19.45859375 -14.58398438 18.515625 C-13.07493696 17.06866719 -11.56270335 15.62519335 -10.04760742 14.18457031 C-8.58713964 12.79065006 -7.13910221 11.38374274 -5.69140625 9.9765625 C-4.81685791 9.14205566 -3.94230957 8.30754883 -3.04125977 7.44775391 C-0.87902966 4.85493977 -0.31344455 3.31799746 0 0 Z " fill="#0A2F49" transform="translate(140,84)"/>
<path d="M0 0 C15.18 0 30.36 0 46 0 C46 0.33 46 0.66 46 1 C44.74340576 1.02505615 43.48681152 1.0501123 42.19213867 1.07592773 C37.53480643 1.17002295 32.87762259 1.27023859 28.22045898 1.37231445 C26.20389271 1.41565529 24.18728993 1.45733098 22.1706543 1.49731445 C19.27381383 1.55503747 16.37715694 1.61872622 13.48046875 1.68359375 C12.12564644 1.70866249 12.12564644 1.70866249 10.74345398 1.73423767 C9.90280899 1.75418289 9.062164 1.77412811 8.19604492 1.79467773 C7.08684944 1.81799416 7.08684944 1.81799416 5.95524597 1.84178162 C3.7848329 1.93912225 3.7848329 1.93912225 1 3 C0.67 3.66 0.34 4.32 0 5 C-0.66 5 -1.32 5 -2 5 C-1.34 3.35 -0.68 1.7 0 0 Z " fill="#133B5D" transform="translate(80,19)"/>
<path d="M0 0 C0 0.66 0 1.32 0 2 C-0.763125 2.4125 -1.52625 2.825 -2.3125 3.25 C-5.68337135 5.444986 -6.54278919 7.28411243 -8 11 C-8.34578768 12.99788438 -8.68143549 14.99759451 -9 17 C-9.66 17.66 -10.32 18.32 -11 19 C-11.70710678 20.64991582 -12.37943989 22.31562256 -13 24 C-14.55847963 18.89541455 -13.24651906 14.50210371 -10.92578125 9.84375 C-5.10401119 0 -5.10401119 0 0 0 Z " fill="#17445E" transform="translate(23,44)"/>
<path d="M0 0 C4.18744075 -0.05840224 8.37477565 -0.09373166 12.5625 -0.125 C13.74392578 -0.14175781 14.92535156 -0.15851562 16.14257812 -0.17578125 C30.34993521 -0.25537429 30.34993521 -0.25537429 35.9375 4.5 C38 7 38 7 38 9 C35 8 35 8 33 5 C26.1336871 1.59113475 19.57018213 1.4642505 12 1.3125 C10.84371094 1.27833984 9.68742187 1.24417969 8.49609375 1.20898438 C5.66415954 1.12706892 2.83251299 1.05773478 0 1 C0 0.67 0 0.34 0 0 Z " fill="#104166" transform="translate(107,6)"/>
<path d="M0 0 C0 3.37610023 -0.40618198 5.02970278 -2 8 C-7.18918919 12 -7.18918919 12 -10 12 C-10 12.99 -10 13.98 -10 15 C-11.65 15.33 -13.3 15.66 -15 16 C-10.30233025 10.33870569 -5.25276628 5.14771096 0 0 Z " fill="#3080B0" transform="translate(137,122)"/>
<path d="M0 0 C0.66 0 1.32 0 2 0 C2.33 0.66 2.66 1.32 3 2 C6.36857717 3.56000934 6.36857717 3.56000934 10 4 C10.391875 5.051875 10.78375 6.10375 11.1875 7.1875 C12.76402557 10.91658932 14.96895425 13.29663487 18 16 C17.67 16.66 17.34 17.32 17 18 C16.19175781 17.18015625 15.38351563 16.3603125 14.55078125 15.515625 C13.47149002 14.42694863 12.39205531 13.3384145 11.3125 12.25 C10.78205078 11.71117187 10.25160156 11.17234375 9.70507812 10.6171875 C7.25116541 8.1482201 4.85388429 5.88563143 2.10546875 3.734375 C1.41066406 3.16203125 0.71585938 2.5896875 0 2 C0 1.34 0 0.68 0 0 Z " fill="#164C6A" transform="translate(63,118)"/>
<path d="M0 0 C3.11754937 2.83413579 4.84908429 5.29481478 5.22705078 9.56542969 C5.21657715 10.50805664 5.20610352 11.45068359 5.1953125 12.421875 C5.18886719 13.44667969 5.18242187 14.47148438 5.17578125 15.52734375 C5.15902344 16.59082031 5.14226562 17.65429688 5.125 18.75 C5.11597656 19.82894531 5.10695312 20.90789062 5.09765625 22.01953125 C5.07411305 24.67991278 5.04122799 27.33984336 5 30 C4.67 30 4.34 30 4 30 C3.92652344 28.42412109 3.92652344 28.42412109 3.8515625 26.81640625 C3.46629652 19.3295824 2.9096661 12.280602 1 5 C0.66013333 3.33465333 0.32297514 1.66870487 0 0 Z " fill="#245B7F" transform="translate(194,50)"/>
<path d="M0 0 C0.66 0.33 1.32 0.66 2 1 C1.16855469 1.80824219 0.33710937 2.61648437 -0.51953125 3.44921875 C-1.61745459 4.52837417 -2.71509599 5.60781647 -3.8125 6.6875 C-4.35970703 7.21794922 -4.90691406 7.74839844 -5.47070312 8.29492188 C-8.56119927 11.34795746 -10.77059446 14.2480736 -13 18 C-15.6875 18.8125 -15.6875 18.8125 -18 19 C-12.44964797 12.21623641 -6.23557973 6.14477032 0 0 Z " fill="#12435F" transform="translate(124,133)"/>
<path d="M0 0 C4.46572364 -0.04958948 8.93129961 -0.085809 13.3972168 -0.10986328 C14.91514886 -0.11989545 16.43306173 -0.13352438 17.95092773 -0.15087891 C20.1379064 -0.17525035 22.32462864 -0.18651095 24.51171875 -0.1953125 C25.82615967 -0.20578613 27.14060059 -0.21625977 28.49487305 -0.22705078 C31.81382589 -0.01205976 34.03314007 0.55774177 37 2 C37 2.33 37 2.66 37 3 C35.00045254 3.04254356 32.99958364 3.04080783 31 3 C30.67 2.67 30.34 2.34 30 2 C27.78312006 1.84126045 25.56144702 1.74866163 23.33984375 1.68359375 C22.34314415 1.6524221 22.34314415 1.6524221 21.3263092 1.62062073 C19.19681457 1.55506342 17.06719332 1.49621215 14.9375 1.4375 C13.49673153 1.39432061 12.05597601 1.35070651 10.61523438 1.30664062 C7.0769596 1.19937607 3.53854131 1.09812629 0 1 C0 0.67 0 0.34 0 0 Z " fill="#2979A7" transform="translate(149,42)"/>
<path d="M0 0 C0 4.07475522 -1.55136644 6.78512736 -4 10 C-6.125 10.75 -6.125 10.75 -8 11 C-8.99 12.485 -8.99 12.485 -10 14 C-10.99 13.67 -11.98 13.34 -13 13 C-8.71 8.71 -4.42 4.42 0 0 Z " fill="#2C7BA8" transform="translate(169,90)"/>
<path d="M0 0 C2.00720923 0.28674418 4.0085944 0.61866701 6 1 C2.38748484 5.56048012 -0.98797445 9.01665146 -6 12 C-4.63016497 8.83884224 -4.0109362 8.0072908 -1 6 C-0.83328148 3.4582293 -0.83328148 3.4582293 -1 1 C-0.67 0.67 -0.34 0.34 0 0 Z " fill="#174A68" transform="translate(102,121)"/>
<path d="M0 0 C-0.33 1.32 -0.66 2.64 -1 4 C-1.57621094 3.76667969 -2.15242188 3.53335938 -2.74609375 3.29296875 C-5.0901315 2.73655262 -5.0901315 2.73655262 -7.03515625 4.36328125 C-7.70417969 5.00652344 -8.37320313 5.64976563 -9.0625 6.3125 C-11.34419948 8.47157455 -13.37041395 10.24694263 -16 12 C-15.35330586 10.65686601 -14.68096422 9.32608822 -14 8 C-13.62875 7.154375 -13.2575 6.30875 -12.875 5.4375 C-9.72164882 1.33814347 -5.07840506 0 0 0 Z " fill="#123957" transform="translate(51,103)"/>
<path d="M0 0 C0.33 1.32 0.66 2.64 1 4 C-1.02478632 6.81220322 -3.96745176 8.40791217 -7 10 C-7.99 10 -8.98 10 -10 10 C-6.7 6.7 -3.4 3.4 0 0 Z " fill="#307CAA" transform="translate(150,109)"/>
<path d="M0 0 C0.33 0 0.66 0 1 0 C1.50604984 6.98629919 1.0333905 11.20200116 -3 17 C-3.625 15.125 -3.625 15.125 -4 13 C-3.34 12.34 -2.68 11.68 -2 11 C-1.31822002 8.34280163 -1.31822002 8.34280163 -0.875 5.375 C-0.70742187 4.37210938 -0.53984375 3.36921875 -0.3671875 2.3359375 C-0.24601563 1.56507813 -0.12484375 0.79421875 0 0 Z " fill="#1D5171" transform="translate(198,164)"/>
<path d="M0 0 C-0.33 0.99 -0.66 1.98 -1 3 C-1.94875 3.309375 -2.8975 3.61875 -3.875 3.9375 C-7.27339731 5.09295509 -8.19414376 5.9902396 -10 9 C-10.66 8.67 -11.32 8.34 -12 8 C-5.73913043 0 -5.73913043 0 0 0 Z " fill="#153D62" transform="translate(77,7)"/>
<path d="M0 0 C0 3.21518097 -0.1621112 4.41024759 -2 7 C-5.125 8.25 -5.125 8.25 -8 9 C-6.90101298 5.70303895 -6.05402613 4.95329411 -3.4375 2.8125 C-2.79683594 2.28269531 -2.15617187 1.75289062 -1.49609375 1.20703125 C-0.75552734 0.60955078 -0.75552734 0.60955078 0 0 Z " fill="#144666" transform="translate(105,152)"/>
<path d="M0 0 C-1.1427919 1.16964602 -2.28931715 2.33564556 -3.4375 3.5 C-4.07558594 4.1496875 -4.71367187 4.799375 -5.37109375 5.46875 C-7 7 -7 7 -8 7 C-8.3125 4.6875 -8.3125 4.6875 -8 2 C-3.92125984 -1.30708661 -3.92125984 -1.30708661 0 0 Z " fill="#205A7C" transform="translate(157,74)"/>
<path d="M0 0 C0.33 0.66 0.66 1.32 1 2 C1.99 2.33 2.98 2.66 4 3 C1.36 5.64 -1.28 8.28 -4 11 C-4.66 10.67 -5.32 10.34 -6 10 C-5.195625 9.278125 -4.39125 8.55625 -3.5625 7.8125 C-0.97707928 4.97484311 -0.31957187 3.72833853 0 0 Z " fill="#174869" transform="translate(140,84)"/>
<path d="M0 0 C0.86625 0.3403125 0.86625 0.3403125 1.75 0.6875 C1.75 1.3475 1.75 2.0075 1.75 2.6875 C0.76 3.0175 -0.23 3.3475 -1.25 3.6875 C-2.24 5.1725 -2.24 5.1725 -3.25 6.6875 C-4.24 5.3675 -5.23 4.0475 -6.25 2.6875 C-2.80384615 -0.38942308 -2.80384615 -0.38942308 0 0 Z " fill="#2B84B5" transform="translate(22.25,177.3125)"/>
<path d="M0 0 C0.66 0 1.32 0 2 0 C1.67 1.65 1.34 3.3 1 5 C-0.65 5.33 -2.3 5.66 -4 6 C-2.84826645 3.53199953 -1.95216435 1.95216435 0 0 Z " fill="#2D7FA9" transform="translate(20,46)"/>
<path d="M0 0 C2.31 0.33 4.62 0.66 7 1 C7 1.66 7 2.32 7 3 C8.65 3.33 10.3 3.66 12 4 C9.5332355 4.88336837 8.36140628 5.1312406 5.859375 4.22265625 C5.16328125 3.83980469 4.4671875 3.45695313 3.75 3.0625 C3.04359375 2.68222656 2.3371875 2.30195313 1.609375 1.91015625 C1.07828125 1.60980469 0.5471875 1.30945313 0 1 C0 0.67 0 0.34 0 0 Z " fill="#10415E" transform="translate(20,185)"/>
<path d="M0 0 C2.52259061 1.97420135 2.9929808 2.96745642 3.6875 6.1875 C3.790625 7.115625 3.89375 8.04375 4 9 C3.01 9.495 3.01 9.495 2 10 C0.68373308 6.38026598 0 3.90432869 0 0 Z " fill="#072030" transform="translate(145,15)"/>
<path d="M0 0 C2.64 0 5.28 0 8 0 C6.515 1.98 6.515 1.98 5 4 C1.125 2.25 1.125 2.25 0 0 Z " fill="#1B506B" transform="translate(83,138)"/>
<path d="M0 0 C0.99 0.33 1.98 0.66 3 1 C2.01 1.495 2.01 1.495 1 2 C1.99 3.32 2.98 4.64 4 6 C2.35 6 0.7 6 -1 6 C-1.33 4.68 -1.66 3.36 -2 2 C-1.34 2 -0.68 2 0 2 C0 1.34 0 0.68 0 0 Z " fill="#27739F" transform="translate(83,132)"/>
<path d="M0 0 C1.65 0 3.3 0 5 0 C4.04578192 1.14926266 3.08647955 2.29430541 2.125 3.4375 C1.59132813 4.07558594 1.05765625 4.71367188 0.5078125 5.37109375 C-1 7 -1 7 -3 8 C-2.5359375 7.13375 -2.5359375 7.13375 -2.0625 6.25 C-1.07416636 4.15705816 -0.4831387 2.25464725 0 0 Z " fill="#123A5D" transform="translate(111,114)"/>
<path d="M0 0 C2.31459868 1.81817001 2.95377187 2.75615543 3.51171875 5.69921875 C3.56972656 6.68535156 3.62773437 7.67148437 3.6875 8.6875 C3.75324219 9.68136719 3.81898438 10.67523438 3.88671875 11.69921875 C3.92410156 12.45847656 3.96148437 13.21773437 4 14 C1.59960958 9.32024725 0 5.32695729 0 0 Z " fill="#1D5E86" transform="translate(194,50)"/>
<path d="M0 0 C0.66 0 1.32 0 2 0 C2 0.66 2 1.32 2 2 C3.65 1.67 5.3 1.34 7 1 C6.1875 2.9375 6.1875 2.9375 5 5 C4.01 5.33 3.02 5.66 2 6 C2 5.01 2 4.02 2 3 C1.34 3 0.68 3 0 3 C0 2.01 0 1.02 0 0 Z " fill="#1B6189" transform="translate(89,132)"/>
<path d="M0 0 C3.91841827 1.30613942 6.32640809 2.83129848 9 6 C9 6.66 9 7.32 9 8 C5.27762318 6.75920773 3.64250671 4.85112566 1 2 C0.67 1.34 0.34 0.68 0 0 Z " fill="#021324" transform="translate(136,7)"/>
<path d="M0 0 C0.66 0 1.32 0 2 0 C1.38722388 2.96175123 0.74627478 4.38058783 -1 7 C-1.66 7 -2.32 7 -3 7 C-2.38722388 4.03824877 -1.74627478 2.61941217 0 0 Z " fill="#1E5B7C" transform="translate(95,161)"/>
<path d="M0 0 C1.98 1.65 3.96 3.3 6 5 C3.3333581 6.33332095 1.83319697 5.67102033 -1 5 C-0.67 3.35 -0.34 1.7 0 0 Z " fill="#287EAE" transform="translate(66,152)"/>
<path d="M0 0 C2.31 1.98 4.62 3.96 7 6 C6.01 6.495 6.01 6.495 5 7 C2.5 5.1875 2.5 5.1875 0 3 C0 2.01 0 1.02 0 0 Z " fill="#2F78A1" transform="translate(42,128)"/>
<path d="M0 0 C2.9375 0.75 2.9375 0.75 6 2 C6.875 4.125 6.875 4.125 7 6 C5.68 5.34 4.36 4.68 3 4 C3 3.34 3 2.68 3 2 C2.01 1.67 1.02 1.34 0 1 C0 0.67 0 0.34 0 0 Z " fill="#163B54" transform="translate(56,112)"/>
<path d="M0 0 C1.98 0.66 3.96 1.32 6 2 C5.01 3.98 4.02 5.96 3 8 C2.67 8 2.34 8 2 8 C2 6.02 2 4.04 2 2 C1.34 2 0.68 2 0 2 C0 1.34 0 0.68 0 0 Z " fill="#2A75A7" transform="translate(114,106)"/>
<path d="" fill="#000000" transform="translate(0,0)"/>
<path d="" fill="#000000" transform="translate(0,0)"/>
<path d="" fill="#000000" transform="translate(0,0)"/>
<path d="" fill="#000000" transform="translate(0,0)"/>
<path d="" fill="#000000" transform="translate(0,0)"/>
<path d="" fill="#000000" transform="translate(0,0)"/>
<path d="" fill="#000000" transform="translate(0,0)"/>
<path d="" fill="#000000" transform="translate(0,0)"/>
<path d="" fill="#000000" transform="translate(0,0)"/>
<path d="" fill="#000000" transform="translate(0,0)"/>
<path d="" fill="#000000" transform="translate(0,0)"/>
<path d="" fill="#000000" transform="translate(0,0)"/>
<path d="" fill="#000000" transform="translate(0,0)"/>
<path d="" fill="#000000" transform="translate(0,0)"/>
<path d="" fill="#000000" transform="translate(0,0)"/>
<path d="" fill="#000000" transform="translate(0,0)"/>
<path d="" fill="#000000" transform="translate(0,0)"/>
<path d="" fill="#000000" transform="translate(0,0)"/>
<path d="" fill="#000000" transform="translate(0,0)"/>
<path d="" fill="#000000" transform="translate(0,0)"/>
</svg>
